Coordinates
version=1
nRows=8
nColumns=42
inDegrees=yes

Units are S.I. units (second, meters, Newtons, ...)
If the header above contains a line with 'inDegrees', this indicates whether rotational values are in degrees (yes) or radians (no).

endheader
time	pelvis_tilt	pelvis_list	pelvis_rotation	pelvis_tx	pelvis_ty	pelvis_tz	hip_flexion_r	hip_adduction_r	hip_rotation_r	knee_angle_r	knee_adduction_r	knee_angle_r_beta	ankle_angle_r	subtalar_angle_r	mtp_angle_r	hip_flexion_l	hip_adduction_l	hip_rotation_l	knee_angle_l	knee_adduction_l	knee_angle_l_beta	ankle_angle_l	subtalar_angle_l	mtp_angle_l	lumbar_extension	lumbar_bending	lumbar_rotation	arm_flex_r	arm_add_r	arm_rot_r	elbow_flex_r	pro_sup_r	wrist_flex_r	wrist_dev_r	arm_flex_l	arm_add_l	arm_rot_l	elbow_flex_l	pro_sup_l	wrist_flex_l	wrist_dev_l
      0.00000000	     -5.26117683	     -4.81366966	      1.29655202	     -1.77633049	      0.94166965	     -0.11529408	     13.11322794	      2.53598335	     -4.08889620	     51.45185115	      6.29839379	      0.89800421	     -4.89580890	    -19.15573533	     -9.75763587	     12.45841082	     -6.11284534	      5.77641150	      7.92583880	      7.29660519	      0.13833198	     -6.47597330	    -18.49377263	     -9.75763587	     -6.24540038	      2.32128080	     -3.75294677	    -10.62719136	    -11.79105058	      0.00299589	     27.92249820	     90.00000001	      0.00000000	      0.00000000	     -0.29601616	    -13.54829435	     -3.90526442	     33.16415559	     90.00000001	      0.00000000	      0.00000000
      0.01000000	     -5.19682668	     -4.94764278	      1.69057620	     -1.76619384	      0.94267364	     -0.11648672	     14.45791087	      2.53813933	     -4.06465810	     51.21564992	      6.51305993	      0.89388172	     -4.54925708	    -19.18770993	     -9.73542122	     11.60953766	     -6.11092573	      5.64089720	      7.71580837	      7.15909802	      0.13466626	     -6.11626089	    -18.28863281	     -9.73542122	     -6.23276772	      2.65670025	     -4.23849238	    -11.05960688	    -11.58777668	      0.00866493	     27.37097050	     90.00000001	      0.00000000	      0.00000000	      0.49125436	    -13.64024666	     -3.72265620	     33.88868985	     90.00000001	      0.00000000	      0.00000000
      0.02000000	     -5.18964826	     -5.04882468	      2.22764510	     -1.75618106	      0.94340294	     -0.11757041	     15.71581200	      2.48523698	     -3.70300890	     50.55571538	      7.05176107	      0.88236369	     -4.01844204	    -19.17391825	     -9.67152223	     10.65972886	     -6.09242749	      6.53278384	      7.05234272	      7.09363863	      0.12308660	     -5.87223927	    -18.38910855	     -9.67152223	     -6.16563287	      2.92528997	     -4.93719367	    -11.14232338	    -11.12628273	     -0.75532454	     26.20259119	     90.00000001	      0.00000000	      0.00000000	      0.87881672	    -14.16948676	     -2.63181403	     35.43394624	     90.00000001	      0.00000000	      0.00000000
      0.03000000	     -5.20117530	     -5.04345711	      2.56697173	     -1.74601442	      0.94382423	     -0.11862912	     17.01682312	      2.34065552	     -3.76858446	     49.82527168	      7.09640404	      0.86961504	     -3.80420528	    -19.18190703	     -9.65253148	      9.91726550	     -5.97832318	      6.23583344	      6.93782286	      6.97819253	      0.12108785	     -5.47903631	    -18.10762712	     -9.65253148	     -6.05216249	      3.07868875	     -5.35629744	    -11.68266781	    -10.91159203	     -0.82664696	     25.87678297	     90.00000001	      0.00000000	      0.00000000	      1.67595871	    -14.31795672	     -2.51946061	     36.14812274	     90.00000001	      0.00000000	      0.00000000
      0.04000000	     -5.28362106	     -5.00789995	      2.92074539	     -1.73571780	      0.94396332	     -0.11964273	     18.22540266	      2.21009221	     -3.67126435	     48.65694452	      7.15893594	      0.84922389	     -3.54653356	    -19.20376031	     -9.63048210	      9.12138762	     -5.83836252	      6.36490505	      6.55067046	      6.86531116	      0.11433077	     -4.88855727	    -17.89855942	     -9.63048210	     -5.85281041	      3.20148411	     -5.83578872	    -12.15374091	    -10.64555680	     -1.07934554	     25.36048081	     90.00000001	      0.00000000	      0.00000000	      2.22845441	    -14.56117290	     -2.19706731	     37.13863775	     90.00000001	      0.00000000	      0.00000000
      0.05000000	     -5.08613089	     -5.10460960	      3.57645649	     -1.72569096	      0.94422188	     -0.12064263	     18.98845745	      2.13650631	     -3.47956419	     47.14082079	      7.55927098	      0.82276253	     -3.31664747	    -19.23723195	     -9.58130795	      7.94337411	     -5.91644094	      7.49310852	      5.78360951	      6.86942974	      0.10094303	     -4.48160234	    -18.02235761	     -9.58130795	     -6.03311119	      3.45535131	     -6.59446032	    -12.23432055	    -10.13349500	     -2.28827698	     24.46369522	     90.00000001	      0.00000000	      0.00000000	      2.53399288	    -15.24401075	     -0.93302296	     38.96237993	     90.00000001	      0.00000000	      0.00000000
      0.06000000	     -5.16644799	     -4.90323518	      3.89114672	     -1.71553833	      0.94381595	     -0.12162384	     20.12745424	      1.82730809	     -3.67506381	     45.71210536	      7.29818214	      0.79782675	     -3.22151314	    -19.25004788	     -9.55893921	      7.23913280	     -5.60503685	      7.27676815	      5.62320166	      6.73379918	      0.09814338	     -4.01769807	    -17.76009727	     -9.55893921	     -5.87473464	      3.37742641	     -7.01154061	    -12.75784513	     -9.90413873	     -2.54039249	     24.24522828	     90.00000001	      0.00000000	      0.00000000	      3.22152578	    -15.46425474	     -0.71539150	     39.74244156	     90.00000001	      0.00000000	      0.00000000
      0.07000000	     -4.92832635	     -4.86147619	      4.56606555	     -1.70530346	      0.94362837	     -0.12268449	     20.66291740	      1.61857396	     -4.00462222	     43.76743760	      7.22707018	      0.76388589	     -3.18669733	    -19.26488151	     -9.46979967	      6.03248509	     -5.54529743	      8.20664643	      4.96121388	      6.68753803	      0.08658952	     -3.61843351	    -17.84757915	     -9.46979967	     -6.08827811	      3.49087174	     -7.70247693	    -12.95576633	     -9.37897494	     -4.18700370	     23.59158353	     90.00000001	      0.00000000	      0.00000000	      3.68306879	    -16.14015426	      0.55285869	     41.24545249	     90.00000001	      0.00000000	      0.00000000
